<svg width="24" height="24" viewBox="0 0 24 24" fill="none" xmlns="http://www.w3.org/2000/svg">
<path d="M11.0607 6.93934C10.4749 6.35355 9.52513 6.35355 8.93934 6.93934C8.35355 7.52513 8.35355 8.47487 8.93934 9.06066L11.0607 6.93934ZM14 12L15.0607 13.0607C15.6464 12.4749 15.6464 11.5251 15.0607 10.9393L14 12ZM8.93934 14.9393C8.35355 15.5251 8.35355 16.4749 8.93934 17.0607C9.52513 17.6464 10.4749 17.6464 11.0607 17.0607L8.93934 14.9393ZM8.93934 9.06066L12.9393 13.0607L15.0607 10.9393L11.0607 6.93934L8.93934 9.06066ZM12.9393 10.9393L8.93934 14.9393L11.0607 17.0607L15.0607 13.0607L12.9393 10.9393Z" fill="#0066B3"/>
</svg>
